# xmcd
# 
# Track frame offsets:
#     150
#     15892
#     30509
#     47541
#     61931
#     75730
#     92098
#     105389
#     124180
#     140597
#     155284
#     167704
#     181021
#     197871
# 
# Disc length: 2827
# 
# Revision: 1
# Processed by: cddbd v1.5.2PL0 Copyright (c) Steve Scherf et al.
# Submitted via: BonkEnc v1.0.6
# 
DISCID=a30b090e
DTITLE=LUCAS E LUAN - EU QUERO SEMPRE MAIS  - LUCAS E LUAN - EU QUERO SEMPRE MAIS 
DYEAR=0
DGENRE=
TTITLE0=PENSA EM MIM PART JORGE E MATHEUS
TTITLE1=PODERA
TTITLE2=HORIZONTE AZUL
TTITLE3=OUTRA DIRECAO
TTITLE4=LOUCA
TTITLE5=ROLA UMA LAGRIMA
TTITLE6=MEXE QUE É BOM
TTITLE7=AMOR CORRESPONDIDO
TTITLE8=NAO VOU CHORAR
TTITLE9=SO QUERO TE DIZER
TTITLE10=EU QUERO SEMPRE MAIS
TTITLE11=TANTO FAZ
TTITLE12=APRENDI A ESPERAR
TTITLE13=PAIXAO NAO SE DELETA
EXTD=
EXTT0=
EXTT1=
EXTT2=
EXTT3=
EXTT4=
EXTT5=
EXTT6=
EXTT7=
EXTT8=
EXTT9=
EXTT10=
EXTT11=
EXTT12=
EXTT13=
PLAYORDER=
